<svg version="1.1" viewBox="0.0 0.0 960.0 540.0" fill="none" stroke="none" stroke-linecap="square" stroke-miterlimit="10" xmlns:xlink="http://www.w3.org/1999/xlink" xmlns="http://www.w3.org/2000/svg"><clipPath id="p.0"><path d="m0 0l960.0 0l0 540.0l-960.0 0l0 -540.0z" clip-rule="nonzero"/></clipPath><g clip-path="url(#p.0)"><path fill="#ffffff" d="m0 0l960.0 0l0 540.0l-960.0 0z" fill-rule="evenodd"/><path fill="#eeeeee" d="m58.937008 52.38845l75.968506 0l0 60.25197l-75.968506 0z" fill-rule="evenodd"/><path stroke="#595959" stroke-width="1.0" stroke-linejoin="round" stroke-linecap="butt" d="m58.937008 52.38845l75.968506 0l0 60.25197l-75.968506 0z" fill-rule="evenodd"/><a xlink:href="https://www.google.com/url?q=https://www.google.com/&amp;sa=D&amp;source=editors&amp;ust=1627772762895000&amp;usg=AOvVaw2_P2r9p7UXyafhlggn8DTR" target="_blank" rel="noreferrer"><path fill="transparent" fill-opacity="0" d="m58.937008 52.38845l75.968506 0l0 60.25197l-75.968506 0z" fill-rule="evenodd"/></a><a xlink:href="https://www.google.com/url?q=https://www.google.com/&amp;sa=D&amp;source=editors&amp;ust=1627772762895000&amp;usg=AOvVaw2_P2r9p7UXyafhlggn8DTR" target="_blank" rel="noreferrer"><path fill="transparent" fill-opacity="0" d="m58.937008 51.88845l0 0l75.968506 0c0.2761383 0 0.5 0.22385788 0.5 0.5l0 0l0 60.25197c0 0.27614594 -0.2238617 0.5 -0.5 0.5l0 0l-75.968506 0c-0.27614212 0 -0.5 -0.22385406 -0.5 -0.5l0 0l0 -60.25197c0 -0.27614212 0.22385788 -0.5 0.5 -0.5l0 0m0 1.0l0 -0.5l0.5 0l0 60.25197l-0.5 0l0 -0.5l75.968506 0l0 0.5l-0.5 0l0 -60.25197l0.5 0l0 0.5l-75.968506 0z" fill-rule="nonzero"/></a><path fill="#eeeeee" d="m315.63516 158.47507l75.968506 0l0 60.25197l-75.968506 0z" fill-rule="evenodd"/><path stroke="#595959" stroke-width="1.0" stroke-linejoin="round" stroke-linecap="butt" d="m315.63516 158.47507l75.968506 0l0 60.25197l-75.968506 0z" fill-rule="evenodd"/><path fill="#eeeeee" d="m531.7349 64.17585l75.968506 0l0 60.25197l-75.968506 0z" fill-rule="evenodd"/><path stroke="#595959" stroke-width="1.0" stroke-linejoin="round" stroke-linecap="butt" d="m531.7349 64.17585l75.968506 0l0 60.25197l-75.968506 0z" fill-rule="evenodd"/><a xlink:href="https://www.google.com/url?q=https://www.wikipedia.org/&amp;sa=D&amp;source=editors&amp;ust=1627772762895000&amp;usg=AOvVaw10yLT4CUD1izuqUN0pk5i0" target="_blank" rel="noreferrer"><path fill="transparent" fill-opacity="0" d="m531.7349 64.17585l75.968506 0l0 60.25197l-75.968506 0z" fill-rule="evenodd"/></a><a xlink:href="https://www.google.com/url?q=https://www.wikipedia.org/&amp;sa=D&amp;source=editors&amp;ust=1627772762896000&amp;usg=AOvVaw3K6Ju2gDdozSiLXDSCBEgn" target="_blank" rel="noreferrer"><path fill="transparent" fill-opacity="0" d="m531.7349 63.675854l0 0l75.968506 0c0.27612305 0 0.5 0.22385788 0.5 0.4999962l0 0l0 60.25197c0 0.27614594 -0.22387695 0.5 -0.5 0.5l0 0l-75.968506 0c-0.27618408 0 -0.5 -0.22385406 -0.5 -0.5l0 0l0 -60.25197c0 -0.2761383 0.22381592 -0.4999962 0.5 -0.4999962l0 0m0 0.9999962l0 -0.5l0.5 0l0 60.25197l-0.5 0l0 -0.5l75.968506 0l0 0.5l-0.5 0l0 -60.25197l0.5 0l0 0.5l-75.968506 0z" fill-rule="nonzero"/></a></g></svg>